<svg style="padding: 17px 0" width="120px" height="36px" viewBox="0 0 150 45" version="1.1" xmlns="http://www.w3.org/2000/svg" xmlns:xlink="http://www.w3.org/1999/xlink">
    <defs>
        <polygon id="path-1" points="0 22.384778 0 0.0843356643 43.9286157 0.0843356643 43.9286157 44.6852203 0 44.6852203"></polygon>
    </defs>
    <g id="Symbols" stroke="none" stroke-width="1" fill="none" fill-rule="evenodd">
        <g id="header/desktop/alg" transform="translate(-150.000000, -83.000000)">
            <g id="alg/logo/neg" transform="translate(150.000000, 83.000000)">
                <g id="Group-3">
                    <g id="Page-1">
                        <path d="M62.0058781,2.97660839 C61.6972004,2.89416084 60.1618698,2.59395105 58.2819112,2.59395105 C56.2305682,2.59395105 51.4702376,3.31961538 51.4702376,10.0523077 L51.4702376,13.5097552 C51.4702376,20.4340909 56.6827376,20.9740909 58.2819112,20.9740909 C60.0010227,20.9740909 61.5626963,20.7094406 62.0207541,20.5848252 C62.2249897,20.5168531 62.7093905,20.3698951 62.7093905,19.7943357 L62.7093905,18.2209091 C62.7093905,17.7491958 62.4369731,17.4706993 61.991312,17.4706993 L61.9262293,17.4706993 C61.2744731,17.5260839 59.6182748,17.6563636 58.3252996,17.6563636 C56.2420351,17.6563636 55.2227169,16.3003846 55.2227169,13.5097552 L55.2227169,10.0523077 C55.2227169,7.22454545 56.2067045,5.91230769 58.3252996,5.91230769 C59.4214773,5.91230769 60.9019525,6.0086014 61.9262293,6.09702797 L61.991312,6.09702797 C62.4369731,6.09702797 62.7093905,5.81601399 62.7093905,5.34618881 L62.7093905,3.76961538 C62.7093905,3.20129371 62.2466839,3.05527972 62.0058781,2.97660839" id="Fill-1" fill="#FEFEFE"></path>
                        <path d="M68.2720041,10.190549 C68.2720041,7.26114336 69.2308884,5.95645804 71.3770661,5.95645804 C73.5297521,5.95645804 74.4880165,7.26114336 74.4880165,10.190549 L74.4880165,13.3726469 C74.4880165,16.300479 73.5297521,17.6067378 71.3770661,17.6067378 C69.2308884,17.6067378 68.2720041,16.300479 68.2720041,13.3726469 L68.2720041,10.190549 Z M71.3770661,2.59404545 C66.9579545,2.59404545 64.518905,5.2908986 64.518905,10.190549 L64.518905,13.3726469 C64.518905,18.2732413 66.9579545,20.9741853 71.3770661,20.9741853 C75.7983471,20.9741853 78.2389463,18.2732413 78.2389463,13.3726469 L78.2389463,10.190549 C78.2389463,5.2908986 75.7983471,2.59404545 71.3770661,2.59404545 L71.3770661,2.59404545 Z" id="Fill-3" fill="#FEFEFE"></path>
                        <path d="M90.3431715,20.6374091 C90.7482335,20.5543322 91.0094938,20.3960455 91.0094938,19.8906608 L91.0094938,18.3858357 C91.0094938,17.9833531 90.6887293,17.6563951 90.2976136,17.6563951 L86.0334607,17.6563951 C84.8052583,17.6563951 84.4751963,17.2759406 84.4751963,15.8891224 L84.4751963,3.50845804 C84.4751963,3.10912238 84.1519525,2.77964685 83.7605269,2.77964685 L81.4646591,2.77964685 C81.0661054,2.77964685 80.7434814,3.10912238 80.7434814,3.50845804 L80.7434814,15.8891224 C80.7434814,20.3922692 83.7447211,20.9741224 86.3607335,20.9741224 C87.6332541,20.9741224 89.6495764,20.8035629 90.3431715,20.6374091" id="Fill-5" fill="#FEFEFE"></path>
                        <path d="M96.4362087,5.97996503 C96.9512913,5.94188811 97.8472624,5.91230769 98.2417872,5.91230769 C100.475362,5.91230769 101.471126,6.60618881 101.471126,8.16954545 L101.471126,8.38258741 C101.471126,10.2065035 100.625671,10.8522378 98.2417872,10.8522378 C97.9300103,10.8522378 96.9581095,10.8204545 96.4362087,10.7971678 L96.4362087,5.97996503 Z M96.4362087,20.0545804 L96.4362087,13.9462238 C96.5462293,13.9525175 96.6615186,13.9591259 96.7817665,13.9641608 C97.2739153,13.9946853 97.8314566,14.0308741 98.2417872,14.0308741 L98.41875,14.0308741 L101.707903,20.2257692 C101.822882,20.4617832 101.98156,20.7859091 102.372986,20.7859091 L105.200362,20.7859091 C105.514618,20.7859091 105.73249,20.5609091 105.73249,20.244021 C105.73249,20.1836014 105.73249,20.0545804 105.65749,19.9343706 L102.147366,13.308986 C104.135795,12.4218881 105.176808,10.7247902 105.176808,8.38258741 L105.176808,8.16954545 C105.176808,4.57237762 102.716994,2.59395105 98.2417872,2.59395105 C96.5982955,2.59395105 94.9303202,2.70597902 93.6661674,2.90076923 C93.2533574,2.96402098 92.7122417,3.12765734 92.7122417,3.85898601 L92.7122417,20.0545804 C92.7122417,20.4564336 93.0289773,20.7859091 93.4222624,20.7859091 L95.7426136,20.7859091 C96.1334194,20.7859091 96.4362087,20.4643007 96.4362087,20.0545804 L96.4362087,20.0545804 Z" id="Fill-7" fill="#FEFEFE"></path>
                        <path d="M114.361178,20.9742168 C118.755806,20.9742168 120.98938,18.6442867 120.98938,14.0555455 L120.98938,3.48432168 C120.98938,3.09065035 120.670785,2.77974126 120.269442,2.77974126 L117.972955,2.77974126 C117.574091,2.77974126 117.261694,3.09065035 117.261694,3.48432168 L117.261694,14.0555455 C117.261694,16.8165944 116.52626,17.7493217 114.361178,17.7493217 C112.186178,17.7493217 111.459421,16.8165944 111.459421,14.0555455 L111.459421,3.48432168 C111.459421,3.09065035 111.145165,2.77974126 110.740103,2.77974126 L108.443616,2.77974126 C108.042273,2.77974126 107.728326,3.09065035 107.728326,3.48432168 L107.728326,14.0555455 C107.728326,18.6442867 109.961281,20.9742168 114.361178,20.9742168" id="Fill-9" fill="#FEFEFE"></path>
                        <path d="M135.636508,2.77961538 L133.088058,2.77961538 C132.737851,2.77961538 132.505413,3.07447552 132.412128,3.31961538 L129.633719,10.3292308 C129.532066,10.5715385 129.467913,10.631958 129.468533,10.6442308 C129.448388,10.6281818 129.380826,10.5595804 129.286921,10.3311189 L126.507273,3.33188811 C126.418326,3.07447552 126.191157,2.77961538 125.831033,2.77961538 L123.258099,2.77961538 C122.906343,2.77961538 122.633306,3.04426573 122.633306,3.3879021 C122.633306,3.47192308 122.660579,3.55814685 122.701178,3.68527972 L126.202934,11.8472727 C126.588471,12.7667832 127.036921,13.3341608 127.590124,13.629021 L127.590124,20.0545804 C127.590124,20.4643007 127.896942,20.7859091 128.287438,20.7859091 L130.60593,20.7859091 C130.993326,20.7859091 131.304483,20.4643007 131.304483,20.0545804 L131.304483,13.629021 C131.858926,13.336993 132.295289,12.7831469 132.696012,11.8472727 L136.234029,3.6365035 C136.256343,3.5679021 136.285475,3.49646853 136.285475,3.3879021 C136.285475,3.05653846 135.994773,2.77961538 135.636508,2.77961538" id="Fill-11" fill="#FEFEFE"></path>
                        <path d="M148.988368,2.77961538 L137.65345,2.77961538 C137.250248,2.77961538 136.937851,3.09052448 136.937851,3.4841958 L136.937851,5.34618881 C136.937851,5.73388112 137.24126,6.02496503 137.65345,6.02496503 L141.455207,6.02496503 L141.455207,20.0545804 C141.455207,20.4564336 141.77969,20.7859091 142.175764,20.7859091 L144.469153,20.7859091 C144.862438,20.7859091 145.19064,20.4564336 145.19064,20.0545804 L145.19064,6.02496503 L148.988368,6.02496503 C149.402417,6.02496503 149.709855,5.73388112 149.709855,5.34618881 L149.709855,3.4841958 C149.709855,3.09052448 149.39219,2.77961538 148.988368,2.77961538" id="Fill-13" fill="#FEFEFE"></path>
                        <path d="M61.7422624,25.0337832 C60.6501136,24.9028741 59.5805888,24.7965105 57.5369938,24.7965105 C55.7152996,24.7965105 51.4669525,25.5410559 51.4669525,32.4666503 L51.4669525,35.385986 C51.4669525,40.2617203 53.6800723,43.0576993 57.5369938,43.0576993 C59.3518698,43.0576993 60.4027996,42.9192378 61.4236674,42.7895874 L61.7131302,42.7502517 C62.0593079,42.715951 62.3354442,42.405042 62.3354442,42.0466154 L62.3354442,34.1137133 C62.3354442,33.7093427 62.0593079,33.4113357 61.6880269,33.4113357 L61.4562087,33.4113357 C61.0908161,33.4113357 60.810031,33.7165804 60.810031,34.1137133 L60.810031,41.3741329 C60.2884401,41.438014 59.2058988,41.5550769 57.5369938,41.5550769 C54.5648864,41.5550769 52.9957748,39.4208811 52.9957748,35.385986 L52.9957748,32.4666503 C52.9957748,27.3511259 55.4667459,26.2793077 57.5369938,26.2793077 C59.193812,26.2793077 59.9366839,26.340042 61.6207748,26.509972 L61.7543492,26.509972 C62.1560021,26.509972 62.3617872,26.3044825 62.3617872,25.9026294 L62.3617872,25.6656713 C62.3617872,25.4092028 62.2564153,25.0954615 61.7422624,25.0337832" id="Fill-15" fill="#FEFEFE"></path>
                        <path d="M67.0909091,26.3717937 C67.8145661,26.3160944 68.9820248,26.2978427 69.8259298,26.2978427 C73.4445248,26.2978427 74.853719,27.2947657 74.853719,29.8556748 L74.853719,29.9746259 C74.853719,32.6330874 73.5870868,33.5321434 69.8259298,33.5321434 C69.4862603,33.5321434 68.8816116,33.5242762 68.2822314,33.5176678 C67.8415289,33.5120035 67.4070248,33.5075979 67.0909091,33.5057098 L67.0909091,26.3717937 Z M72.3988636,34.8390315 C75.1143595,34.262528 76.380062,32.7051503 76.380062,29.9746259 L76.380062,29.8556748 C76.380062,26.308542 74.422624,24.796479 69.8259298,24.796479 C68.8121901,24.796479 67.016219,24.8430524 66.1853306,24.8911993 C65.8416322,24.9292762 65.5568182,25.252458 65.5568182,25.5976678 L65.5568182,42.2130524 C65.5568182,42.6004301 65.853719,42.9151154 66.206095,42.9151154 L66.4372934,42.9151154 C66.8054752,42.9151154 67.0909091,42.6095559 67.0909091,42.2130524 L67.0909091,35.0067587 C67.6747934,35.0209196 69.1128099,35.0350804 69.8259298,35.0350804 L70.683781,35.0350804 L75.5538223,42.593507 C75.6440083,42.7275629 75.8783058,42.9151154 76.1039256,42.9151154 L76.4067149,42.9151154 C76.7745868,42.9151154 77.0355372,42.6655699 77.0355372,42.3052552 C77.0355372,42.1284021 76.95,41.9556399 76.8774793,41.8351154 L72.3988636,34.8390315 Z" id="Fill-17" fill="#FEFEFE"></path>
                        <path d="M89.8074793,32.4665245 L89.8074793,35.3858601 C89.8074793,39.4799161 88.2386777,41.554951 85.1466322,41.554951 C82.0552066,41.554951 80.4895041,39.4799161 80.4895041,35.3858601 L80.4895041,32.4665245 C80.4895041,28.3746713 82.0552066,26.2977483 85.1466322,26.2977483 C88.2386777,26.2977483 89.8074793,28.3746713 89.8074793,32.4665245 M85.1466322,24.7966993 C81.157686,24.7966993 78.9628512,27.519986 78.9628512,32.4665245 L78.9628512,35.3858601 C78.9628512,40.3342867 81.157686,43.0575734 85.1466322,43.0575734 C89.1380579,43.0575734 91.3375413,40.3342867 91.3375413,35.3858601 L91.3375413,32.4665245 C91.3375413,27.519986 89.1380579,24.7966993 85.1466322,24.7966993" id="Fill-19" fill="#FEFEFE"></path>
                        <path d="M104.899618,24.914549 L104.66718,24.914549 C104.303957,24.914549 104.0272,25.2241993 104.0272,25.6153531 L104.0272,36.4455629 C104.0272,39.9974161 102.730816,41.5787098 99.8179029,41.5787098 C96.9403202,41.5787098 95.6008574,39.9495839 95.6008574,36.4455629 L95.6008574,25.6153531 C95.6008574,25.2286049 95.3104649,24.914549 94.9518905,24.914549 L94.7148037,24.914549 C94.3593285,24.914549 94.0742045,25.2286049 94.0742045,25.6153531 L94.0742045,36.4455629 C94.0742045,40.7718566 96.0632541,43.0577308 99.8179029,43.0577308 C103.568523,43.0577308 105.544866,40.7718566 105.544866,36.4455629 L105.544866,25.6153531 C105.544866,25.2241993 105.262841,24.914549 104.899618,24.914549" id="Fill-21" fill="#FEFEFE"></path>
                        <path d="M110.272934,26.2833042 C110.901136,26.2458566 111.683368,26.2282343 112.548967,26.2282343 C116.122004,26.2282343 117.584504,27.2733042 117.584504,29.8291783 L117.584504,30.2288287 C117.584504,32.9741434 116.122004,34.0941084 112.548967,34.0941084 C111.855062,34.0941084 110.958161,34.0579196 110.272934,34.0173252 L110.272934,26.2833042 Z M112.548967,24.7964161 C111.790909,24.7964161 110.69907,24.8370105 109.365496,24.9144231 C109.027686,24.9556469 108.746281,25.2759965 108.746281,25.6152273 L108.746281,42.2133042 C108.746281,42.609493 109.027686,42.9150524 109.395248,42.9150524 L109.623967,42.9150524 C109.983471,42.9150524 110.272934,42.6003671 110.272934,42.2133042 L110.272934,35.4463112 C110.750517,35.4780944 111.633781,35.5268706 112.548967,35.5268706 C116.96095,35.5268706 119.108678,33.7948427 119.108678,30.2288287 L119.108678,29.8291783 C119.108678,26.4887937 116.902686,24.7964161 112.548967,24.7964161 L112.548967,24.7964161 Z" id="Fill-23" fill="#FEFEFE"></path>
                        <g id="Group-27" transform="translate(0.000000, 0.230350)">
                            <mask id="mask-2" fill="white">
                                <use xlink:href="#path-1"></use>
                            </mask>
                            <g id="Clip-26"></g>
                            <path d="M28.8997934,22.3853601 C28.8997934,26.2745559 25.7934917,29.4277028 21.9629132,29.4277028 C18.1326446,29.4277028 15.0266529,26.2745559 15.0266529,22.3853601 C15.0266529,18.4958497 18.1326446,15.3433322 21.9629132,15.3433322 C22.7938017,15.3433322 23.5905992,15.4946958 24.3254132,15.7653252 L30.682438,1.92294755 C28.0097107,0.746339161 25.0642562,0.0842412587 21.9647727,0.0842412587 C9.83181818,0.0842412587 0,10.0682622 0,22.3853601 C0,34.701514 9.83181818,44.6852203 21.9647727,44.6852203 C34.0943182,44.6852203 43.9286157,34.701514 43.9286157,22.3853601 C43.9286157,20.6791364 43.732438,19.0210594 43.376343,17.4259196 L26.8856405,17.4259196 C28.1302686,18.6981923 28.8997934,20.4503601 28.8997934,22.3853601" id="Fill-25" fill="#FEFEFE" mask="url(#mask-2)"></path>
                        </g>
                    </g>
                </g>
            </g>
        </g>
    </g>
</svg>