<svg xmlns="http://www.w3.org/2000/svg" viewBox="0 0 589.18 113.39">
    <path class="cls-1" d="M180.15,147.8s15-3.48,15-25c0-29.32-30.55-30.13-30.55-30.13H110.44v112h58s32.17,1.64,32.17-29.33C200.64,149.65,180.15,147.8,180.15,147.8Zm-47-33h27.87s10.27-.21,10.27,10.87S161.07,138,161.07,138H133.2Zm33,66.23h-33V157.84h33s10.26-.2,10.26,10.87S166.2,181,166.2,181ZM272.82,93.67A56.18,56.18,0,1,0,329,149.84,56.17,56.17,0,0,0,272.82,93.67Zm0,89.8a33.63,33.63,0,1,1,33.63-33.63A33.6,33.6,0,0,1,272.82,183.47Zm250.35-19.74h23.57v11.81a33.61,33.61,0,1,1,4.41-46.93l15.16-16.91a56.18,56.18,0,1,0,2.87,72.93V143.49h-46ZM643.43,93.67a56.18,56.18,0,1,0,56.18,56.17A56.18,56.18,0,0,0,643.43,93.67Zm0,89.8a33.63,33.63,0,1,1,33.63-33.63A33.62,33.62,0,0,1,643.43,183.47ZM345.7,97.88v20.57l83.37,85.42h20.06V183.12L366,97.88Zm0,106h41.9L345.7,161Zm103.43-63.06V97.88H407.24Z" transform="translate(-110.44 -92.64)"></path>
</svg>